# xmcd
#
# Track frame offsets: 
#        150
#        22985
#        42797
#        65145
#        84192
#        109859
#        126066
#        147024
#        164576
#        192053
#
# Disc length: 2911 seconds
#
# Revision: 0
# Processed by: cddbd v1.5.2PL0 Copyright (c) Steve Scherf et al.
# Submitted via: ExactAudioCopy v1.0b3
#
DISCID=7e0b5d0a
DTITLE=Mong Thi - Ngo Ngang
DYEAR=1998
DGENRE=
TTITLE0=Ngo ngang
TTITLE1=Mua dep que huong
TTITLE2=Tha dung yeu nhau
TTITLE3=Chim sao ngay xua
TTITLE4=Can nha mong uoc
TTITLE5=Do tinh lo chuyen
TTITLE6=Tinh bau muon thoi
TTITLE7=Ve que cam cau
TTITLE8=Neu ai co hoi
TTITLE9=Mua bong bong
EXTD=
EXTT0=
EXTT1=
EXTT2=
EXTT3=
EXTT4=
EXTT5=
EXTT6=
EXTT7=
EXTT8=
EXTT9=
PLAYORDER=
